<?xml version="1.0" standalone="no"?>
<!DOCTYPE svg PUBLIC "-//W3C//DTD SVG 20010904//EN"
 "http://www.w3.org/TR/2001/REC-SVG-20010904/DTD/svg10.dtd">
<svg version="1.0" xmlns="http://www.w3.org/2000/svg"
 width="260.000000pt" height="260.000000pt" viewBox="0 0 260.000000 260.000000"
 preserveAspectRatio="xMidYMid meet">
<metadata>
Created by potrace 1.11, written by Peter Selinger 2001-2013
</metadata>
<g transform="translate(0.000000,260.000000) scale(0.100000,-0.100000)"
fill="#000000" stroke="none">
<path d="M847 2584 c-4 -4 -7 -191 -7 -416 l0 -408 -420 0 -420 0 0 -25 0 -25
420 0 420 0 0 -410 0 -410 -420 0 -420 0 0 -25 0 -25 420 0 420 0 0 -420 0
-420 25 0 25 0 0 420 0 420 410 0 410 0 0 -420 0 -420 25 0 25 0 0 420 0 420
420 0 420 0 0 25 0 25 -420 0 -420 0 0 410 0 410 420 0 420 0 0 25 0 25 -420
0 -420 0 -2 403 c-3 394 -3 402 -23 402 -20 0 -20 -8 -23 -402 l-2 -403 -410
0 -410 0 -2 412 c-3 363 -5 413 -18 416 -9 1 -19 0 -23 -4z m863 -1284 l0
-410 -410 0 -410 0 0 410 0 410 410 0 410 0 0 -410z"/>
<path d="M1173 1418 c29 -40 57 -79 61 -85 4 -7 -9 -34 -32 -65 -21 -29 -48
-68 -61 -85 l-22 -33 34 0 c32 0 38 6 78 66 l43 66 18 -24 c10 -12 31 -42 46
-65 23 -37 32 -43 61 -43 l33 0 -18 28 c-10 15 -37 53 -60 86 l-43 59 46 66
c26 36 53 74 61 84 14 16 12 17 -21 17 -33 0 -40 -5 -78 -62 -35 -51 -44 -59
-53 -46 -6 9 -26 36 -43 62 -28 40 -37 46 -68 46 l-35 0 53 -72z"/>
<path d="M2125 2346 c-70 -31 -102 -100 -93 -197 9 -91 68 -144 158 -144 63 0
95 16 134 69 17 22 21 42 21 106 0 84 -12 112 -67 153 -33 25 -113 32 -153 13z
m116 -46 c73 -40 62 -226 -16 -246 -47 -12 -94 4 -115 39 -39 63 -19 186 33
207 30 12 75 12 98 0z"/>
</g>
</svg>
